<svg width="35" height="35" viewBox="0 0 35 35" fill="none" xmlns="http://www.w3.org/2000/svg">
<path d="M35 23.5156C35 26.8379 33.1554 29.5312 29.5312 29.5312H5.46875C1.84461 29.5312 0 26.8379 0 23.5156V11.4844C0 8.16211 1.84461 5.46875 5.46875 5.46875H29.5312C33.1554 5.46875 35 8.16211 35 11.4844V23.5156Z" fill="#128807"/>
<path d="M31.2484 17.932L17.582 27.5352L3.91504 17.932L17.582 8.32891L31.2484 17.932Z" fill="#F9CB38"/>
<path fill-rule="evenodd" clip-rule="evenodd" d="M22.9742 19.6044C22.3519 21.7191 20.4045 23.3291 18.1995 23.5479C15.2534 23.8427 12.676 21.9702 12.0493 19.0755C11.8639 18.2249 11.8875 17.342 12.1182 16.5025C12.2041 16.4095 12.3227 16.3871 12.4409 16.3707C13.3025 16.2511 14.1736 16.2132 15.0423 16.2575C15.9693 16.31 16.8886 16.4385 17.7822 16.6912C18.6993 16.9509 19.5874 17.29 20.4258 17.7406C21.0567 18.0758 21.6593 18.4617 22.2277 18.8945C22.4202 19.0438 22.6166 19.1904 22.8014 19.3495C22.884 19.4206 22.9491 19.4972 22.9742 19.6044Z" fill="#002776"/>
<path fill-rule="evenodd" clip-rule="evenodd" d="M12.4272 15.6466C13.1333 14.0689 14.3238 13.0184 15.9694 12.5251C19.2834 11.5314 22.6833 13.7216 23.1761 17.1374C23.2526 17.6652 23.2559 18.1945 23.175 18.7234C23.0913 18.7545 23.029 18.7102 22.9715 18.6627C22.3709 18.1718 21.7301 17.7324 21.0558 17.3491C20.5367 17.0544 19.9972 16.7971 19.4415 16.5791C19.343 16.5402 19.2194 16.52 19.1855 16.3882C19.2211 16.3248 19.2659 16.2695 19.3195 16.2181C19.3387 16.1984 19.3665 16.1793 19.3408 16.1465C19.3321 16.1361 19.314 16.1361 19.2987 16.1377C19.2577 16.1421 19.2632 16.1705 19.2648 16.2006C19.2681 16.2985 19.2112 16.3614 19.1363 16.4117C19.0034 16.4418 18.876 16.4019 18.7683 16.3445C18.4598 16.1826 18.1186 16.1273 17.7921 16.0371C17.2829 15.8987 16.7601 15.8205 16.2384 15.7391C15.822 15.6726 15.4029 15.6248 14.9822 15.5958C14.5994 15.569 14.2095 15.5728 13.824 15.5991C13.4034 15.6286 12.9818 15.6581 12.5634 15.7084C12.5372 15.7123 12.5104 15.7085 12.4863 15.6975C12.4621 15.6866 12.4416 15.6689 12.4272 15.6466Z" fill="#002776"/>
<path fill-rule="evenodd" clip-rule="evenodd" d="M19.1899 16.3543C19.1877 16.421 19.2473 16.4123 19.2834 16.4265C20.6956 16.9759 22.0089 17.7516 23.1717 18.7234C23.1381 19.0234 23.0717 19.3188 22.9737 19.6044C22.2896 19.0367 21.589 18.4959 20.8141 18.054C18.3646 16.6589 15.7418 16.106 12.938 16.4024C12.6646 16.4303 12.3911 16.4675 12.1177 16.5009C12.1882 16.205 12.2779 15.9146 12.425 15.6455C14.472 15.3694 16.4834 15.5263 18.4571 16.1372C18.7021 16.2132 18.9356 16.3357 19.197 16.3587L19.1899 16.3527" fill="#FEFEFE"/>
<path fill-rule="evenodd" clip-rule="evenodd" d="M21.7385 19.8789C21.5739 19.8614 21.7527 20.0632 21.5865 20.0588C21.4415 20.0566 21.4339 19.9407 21.3628 19.8762C21.4175 19.8193 21.5143 19.8078 21.5449 19.7192C21.5657 19.8127 21.6537 19.8324 21.7385 19.8789Z" fill="#D9DFEA"/>
<path fill-rule="evenodd" clip-rule="evenodd" d="M15.5279 20.8906C15.3731 20.9087 15.5028 21.0771 15.3731 21.0798C15.2424 21.0826 15.1752 20.9858 15.1489 20.8857C15.1396 20.8573 15.2654 20.7938 15.3272 20.7468C15.3349 20.8458 15.4377 20.8414 15.5279 20.8906Z" fill="#E9ECF3"/>
<path fill-rule="evenodd" clip-rule="evenodd" d="M17.5766 20.586C17.3617 20.7249 17.535 20.411 17.4087 20.4416C17.4497 20.376 17.5656 20.3913 17.5733 20.2907C17.628 20.3476 17.6745 20.4132 17.7614 20.4252C17.6373 20.4083 17.7724 20.6839 17.5766 20.586Z" fill="#EDEFF5"/>
<path fill-rule="evenodd" clip-rule="evenodd" d="M13.1361 16.9012C13.0847 16.9991 13.0459 17.1084 12.89 17.0428C12.8102 17.0095 12.8955 16.9001 12.7998 16.8897L12.977 16.7338C12.989 16.7595 13.0032 16.7841 13.0153 16.8098C13.0295 16.8749 13.1591 16.7885 13.1361 16.9012Z" fill="#F0F2F6"/>
<path fill-rule="evenodd" clip-rule="evenodd" d="M13.632 19.2773C13.5505 19.303 13.6091 19.5174 13.4341 19.4239C13.4166 19.4152 13.34 19.4573 13.3542 19.4327C13.4002 19.343 13.2973 19.2992 13.3132 19.2276C13.4089 19.2691 13.4034 19.0941 13.5013 19.1412C13.5084 19.1466 13.5084 19.1685 13.5134 19.1827C13.5237 19.2505 13.6561 19.1658 13.632 19.2773Z" fill="#ECEFF4"/>
<path fill-rule="evenodd" clip-rule="evenodd" d="M12.7717 19.9106C12.6038 19.9691 12.7291 19.7662 12.6328 19.7679C12.6777 19.7302 12.728 19.6596 12.7728 19.6623C12.8264 19.6651 12.8756 19.7312 12.9248 19.769C12.8516 19.7936 12.9287 19.9921 12.7717 19.9106Z" fill="#D9DFEA"/>
<path fill-rule="evenodd" clip-rule="evenodd" d="M19.261 21.846C19.0833 21.927 19.2561 21.688 19.1374 21.7191C19.1254 21.6278 19.2736 21.683 19.255 21.5868L19.4152 21.7153C19.3501 21.7448 19.4152 21.9308 19.261 21.846Z" fill="#D8DEEA"/>
<path fill-rule="evenodd" clip-rule="evenodd" d="M20.3984 21.7142C20.2513 21.7755 20.3415 21.5775 20.2622 21.5578C20.3158 21.5234 20.3721 21.4867 20.4246 21.4512C20.429 21.5321 20.54 21.5026 20.5521 21.5742C20.4695 21.5791 20.5553 21.7574 20.3984 21.7142ZM21.421 20.9781C21.2537 21.0629 21.3773 20.8403 21.2816 20.8496C21.3007 20.7785 21.4106 20.8053 21.4172 20.7233L21.5742 20.8409C21.4785 20.8381 21.596 21.0727 21.421 20.9781Z" fill="#DCE1EC"/>
<path fill-rule="evenodd" clip-rule="evenodd" d="M14.647 19.9571C14.472 20.0561 14.5863 19.8346 14.5054 19.8302C14.5136 19.7487 14.6372 19.7837 14.6426 19.6973C14.659 19.7772 14.7651 19.7542 14.7881 19.8259C14.6837 19.8105 14.8324 20.0616 14.647 19.9571Z" fill="#D4DAE7"/>
<path fill-rule="evenodd" clip-rule="evenodd" d="M15.3562 18.2957C15.2572 18.2891 15.3841 18.1333 15.2627 18.1431C15.2835 18.0556 15.377 18.0737 15.4284 18.0283C15.4546 18.0835 15.529 18.0961 15.5329 18.1754C15.5416 18.3203 15.4131 18.2454 15.3562 18.2957Z" fill="#F2F4F7"/>
<path fill-rule="evenodd" clip-rule="evenodd" d="M18.2383 19.4507C18.0868 19.5377 18.1667 19.3435 18.0967 19.3222C18.1443 19.2828 18.1902 19.2429 18.2383 19.2024C18.2416 19.2834 18.3964 19.2653 18.3526 19.3277C18.3264 19.3648 18.4111 19.5349 18.2383 19.4507Z" fill="#E6E9F1"/>
<path fill-rule="evenodd" clip-rule="evenodd" d="M17.5603 18.9634C17.3874 18.9809 17.5657 18.824 17.4536 18.8278C17.4974 18.7868 17.5395 18.7168 17.5887 18.7124C17.6313 18.708 17.6806 18.7775 17.7271 18.8158C17.6663 18.8743 17.6756 19.0252 17.5603 18.9634Z" fill="#EAEDF3"/>
<path fill-rule="evenodd" clip-rule="evenodd" d="M21.7559 20.2398C21.7915 20.3339 21.8615 20.3465 21.9162 20.3798C21.8604 20.4427 21.8385 20.539 21.7226 20.539C21.6039 20.5401 21.6843 20.4498 21.6575 20.4077C21.5913 20.3027 21.8358 20.3913 21.7559 20.2398Z" fill="#E4E8F0"/>
<path fill-rule="evenodd" clip-rule="evenodd" d="M20.5177 22.1452C20.4762 22.207 20.5046 22.266 20.3941 22.2682C20.2678 22.2704 20.3083 22.178 20.3028 22.1495C20.2924 22.1025 20.3646 22.0577 20.4062 22.067C20.4423 22.0735 20.5123 22.0937 20.5177 22.1452Z" fill="#CED5E4"/>
<path fill-rule="evenodd" clip-rule="evenodd" d="M14.6091 20.393C14.5189 20.4034 14.5938 20.5215 14.4795 20.5177C14.3751 20.5144 14.3904 20.4438 14.3789 20.4012C14.3608 20.3416 14.4489 20.3432 14.4686 20.2984C14.5101 20.3273 14.5522 20.3563 14.6091 20.393Z" fill="#DAE0EB"/>
<path fill-rule="evenodd" clip-rule="evenodd" d="M20.2725 21.0175C20.3113 20.9885 20.3501 20.9617 20.3911 20.9344C20.3944 20.9951 20.5251 20.9601 20.4814 21.0377C20.4633 21.0689 20.5076 21.1542 20.3944 21.1466C20.2927 21.1395 20.3168 21.0684 20.2725 21.0175Z" fill="#D8DEE9"/>
<path fill-rule="evenodd" clip-rule="evenodd" d="M19.8568 21.2051C19.8371 21.3128 19.7759 21.3303 19.7086 21.3429C19.5943 21.362 19.6802 21.2762 19.6616 21.2434C19.6135 21.1613 19.7349 21.1772 19.7491 21.1236C19.7808 21.1652 19.8535 21.1641 19.8568 21.2051Z" fill="#CBD2E3"/>
<path fill-rule="evenodd" clip-rule="evenodd" d="M19.2173 17.6586C19.179 17.6766 19.2299 17.768 19.1479 17.7417C19.0855 17.7204 19.009 17.6909 19.0144 17.6143C19.0166 17.5848 19.091 17.5602 19.1326 17.5345C19.1397 17.5897 19.2578 17.5716 19.2173 17.6586Z" fill="#D1D8E6"/>
<path fill-rule="evenodd" clip-rule="evenodd" d="M22.312 20.0572C22.2092 20.0977 22.2557 20.0129 22.2377 19.9883C22.1688 19.8948 22.3049 19.9084 22.312 19.8527C22.3542 19.8805 22.4362 19.9123 22.4329 19.9363C22.4305 19.9676 22.417 19.997 22.3948 20.0191C22.3727 20.0413 22.3433 20.0548 22.312 20.0572Z" fill="#DADFEA"/>
<path fill-rule="evenodd" clip-rule="evenodd" d="M17.0242 19.2227C17.0242 19.2861 17.1522 19.2609 17.109 19.3402C17.0915 19.3725 17.1287 19.4589 17.0401 19.4409C16.9728 19.4272 16.905 19.3878 16.9028 19.3211C16.9028 19.2899 16.9805 19.2566 17.0242 19.2227Z" fill="#CAD2E2"/>
<path fill-rule="evenodd" clip-rule="evenodd" d="M18.7743 21.2013C18.724 21.1777 18.7218 21.1116 18.7251 21.0798C18.7306 21.0377 18.7869 20.9809 18.835 21.0038C18.8646 21.018 18.9482 21.0098 18.928 21.0864C18.9094 21.1597 18.8361 21.1701 18.7743 21.2013Z" fill="#D0D7E5"/>
<path fill-rule="evenodd" clip-rule="evenodd" d="M20.8906 21.105C20.8928 21.1045 20.9311 21.0514 20.9743 21.0503C21.0055 21.0492 21.0372 21.1137 21.0705 21.1498C21.0257 21.1624 21.064 21.245 20.9754 21.2439C20.8955 21.2423 20.8955 21.2062 20.8906 21.105Z" fill="#EFF2F6"/>
<path fill-rule="evenodd" clip-rule="evenodd" d="M17.3721 19.7203C17.3574 19.7794 17.3574 19.816 17.3049 19.8149C17.2513 19.8138 17.225 19.7941 17.2261 19.7395C17.2261 19.6962 17.2545 19.6662 17.2868 19.6689C17.324 19.6716 17.377 19.682 17.3721 19.7203Z" fill="#CCD4E3"/>
<path fill-rule="evenodd" clip-rule="evenodd" d="M14.0187 18.8694C14.045 18.8978 14.075 18.9202 14.0865 18.9492C14.0964 18.9733 14.0811 19.0099 14.0472 19.0138C14.0094 19.017 13.969 19.0159 13.9569 18.9689C13.946 18.923 13.9859 18.9066 14.0187 18.8694Z" fill="#E0E5EE"/>
<path fill-rule="evenodd" clip-rule="evenodd" d="M13.6319 19.2773C13.6171 19.2145 13.5197 19.2544 13.5132 19.1822C13.534 19.2369 13.6964 19.1149 13.6319 19.2773Z" fill="#7085B1"/>
<path fill-rule="evenodd" clip-rule="evenodd" d="M13.136 16.9012C13.124 16.8339 13.0206 16.887 13.0151 16.8098C13.0441 16.8558 13.1907 16.747 13.136 16.9012Z" fill="#5C75A7"/>
<path fill-rule="evenodd" clip-rule="evenodd" d="M19.201 16.3603C19.2114 16.3188 19.2447 16.2509 19.2316 16.2384C19.0533 16.0798 19.2912 16.053 19.3267 16.0207C19.3918 15.9578 19.3814 16.223 19.5531 16.0552C19.4607 16.2602 19.3371 16.3193 19.1949 16.3543L19.201 16.3603Z" fill="#E7EAF2"/>
<path fill-rule="evenodd" clip-rule="evenodd" d="M13.9297 16.1902C13.7558 16.1733 13.9105 15.9469 13.8728 15.8156C13.8258 15.6461 13.9494 15.6483 14.0697 15.6477C14.2562 15.6466 14.3617 15.7254 14.3617 15.9223C14.3612 16.1159 14.2715 16.1924 13.9297 16.1902Z" fill="#15A24A"/>
<path fill-rule="evenodd" clip-rule="evenodd" d="M20.5741 17.2829C20.5358 17.3999 20.3941 17.4732 20.3701 17.6176C20.3679 17.6367 20.3132 17.6329 20.3028 17.5771C20.2591 17.3157 20.2569 17.3163 20.0638 17.4563C20.0485 17.4677 20.0217 17.4781 20.007 17.4732C19.9785 17.4606 19.967 17.4322 19.984 17.3999C20.048 17.2752 20.1081 17.1473 20.1798 17.0264C20.2279 16.9466 20.2864 17.0133 20.3334 17.0363C20.4368 17.0871 20.5642 17.1161 20.5741 17.2829Z" fill="#13A248"/>
<path fill-rule="evenodd" clip-rule="evenodd" d="M21.0633 17.7084C20.9627 17.7488 20.914 17.6728 20.8495 17.6455C20.8057 17.6269 20.7647 17.6094 20.7352 17.658C20.7029 17.7095 20.7352 17.739 20.7795 17.762C20.8134 17.7789 20.8495 17.792 20.8746 17.8188C20.9189 17.8653 21.0578 17.8527 21.0015 17.9517C20.9572 18.0305 20.8828 17.9386 20.8336 17.9096C20.7488 17.8577 20.581 17.8292 20.599 17.739C20.6269 17.5941 20.7095 17.4366 20.8194 17.337C20.9074 17.2572 21.0048 17.4081 21.1038 17.4459C21.1464 17.4617 21.2192 17.4759 21.2066 17.5432C21.1945 17.6127 21.1431 17.5722 21.1038 17.5629C21.0113 17.5416 20.9217 17.3852 20.8489 17.4934C20.8052 17.558 20.9851 17.5848 21.042 17.6559C21.0507 17.6663 21.0529 17.6805 21.0633 17.7084ZM22.2418 18.4816C22.2582 18.6096 22.2063 18.6966 22.0723 18.6747C21.9334 18.6517 21.8278 18.567 21.8038 18.4149C21.8016 18.3996 21.8202 18.3684 21.8355 18.3641C21.8443 18.3612 21.8536 18.3603 21.8628 18.3614C21.8721 18.3625 21.8809 18.3656 21.8888 18.3705C21.8966 18.3754 21.9034 18.382 21.9084 18.3897C21.9135 18.3975 21.9168 18.4063 21.9181 18.4155C21.9356 18.5199 21.9903 18.5664 22.1002 18.5686C22.1215 18.3974 21.8125 18.3192 21.9903 18.1415C22.0794 18.0523 22.1882 18.1262 22.2659 18.1978C22.3375 18.2629 22.425 18.3345 22.2943 18.4275C22.2757 18.4177 22.2506 18.4018 22.2369 18.4127C22.209 18.4313 22.2363 18.4581 22.2418 18.4816Z" fill="#11A147"/>
<path fill-rule="evenodd" clip-rule="evenodd" d="M18.4648 16.853C18.3997 16.8164 18.403 16.7814 18.4134 16.7431C18.4342 16.6616 18.3921 16.619 18.3177 16.596C18.2433 16.572 18.1859 16.5752 18.1657 16.6682C18.1586 16.7098 18.1367 16.7387 18.0913 16.7234C18.0388 16.7043 18.065 16.6616 18.0749 16.6305C18.0957 16.5588 18.1143 16.4866 18.1471 16.4183C18.1766 16.3499 18.1558 16.2247 18.2636 16.2329C18.3779 16.2411 18.5014 16.2684 18.5884 16.363C18.6272 16.4046 18.6431 16.4762 18.6114 16.5074C18.5189 16.6026 18.5266 16.7371 18.4648 16.853Z" fill="#0FA046"/>
<path fill-rule="evenodd" clip-rule="evenodd" d="M15.0898 16.1569C14.9132 16.2236 14.7738 16.1848 14.6376 16.1875C14.5758 16.1891 14.5703 16.1427 14.5703 16.0956C14.5747 16.0437 14.5747 15.9912 14.5747 15.9392C14.5812 15.651 14.6835 15.5772 14.9668 15.6576C14.9985 15.6663 15.0286 15.6718 15.0308 15.7073C15.0308 15.7566 14.9952 15.7653 14.9515 15.7642C14.9455 15.7631 14.9384 15.7615 14.9307 15.7626C14.8459 15.7834 14.6939 15.6877 14.6912 15.8145C14.6879 15.9119 14.8536 15.843 14.9384 15.8758C14.9504 15.8807 14.9635 15.8916 14.9821 15.9053C14.9285 16.0021 14.8394 15.948 14.7705 15.9595C14.7295 15.966 14.6759 15.948 14.6698 16.0147C14.6622 16.0934 14.7169 16.0896 14.7705 16.0951C14.8618 16.106 14.9608 16.0716 15.0898 16.1569Z" fill="#0B9F43"/>
<path fill-rule="evenodd" clip-rule="evenodd" d="M13.6378 16.1984C13.5427 16.1777 13.5558 16.123 13.5394 16.0847C13.511 16.0141 13.4546 16.0141 13.3928 16.0191C13.3223 16.0256 13.284 16.053 13.29 16.1312C13.2944 16.1695 13.3097 16.2312 13.2386 16.2225C13.1774 16.2148 13.1949 16.1552 13.1916 16.1148C13.1861 16.0486 13.1796 15.9808 13.1861 15.9152C13.1949 15.8419 13.1249 15.7298 13.2304 15.7035C13.3392 15.6751 13.465 15.6548 13.5782 15.709C13.6274 15.7325 13.6663 15.7899 13.6482 15.8364C13.6067 15.9534 13.6395 16.0721 13.6378 16.1984Z" fill="#079D3F"/>
<path fill-rule="evenodd" clip-rule="evenodd" d="M12.4834 16.0125C12.5009 15.8643 12.566 15.744 12.7284 15.7495C12.8843 15.7544 12.9674 15.8627 12.9674 16.0185C12.9674 16.1733 12.8952 16.2799 12.7306 16.2788C12.5632 16.2777 12.5064 16.1563 12.4834 16.0125Z" fill="#15A24A"/>
<path fill-rule="evenodd" clip-rule="evenodd" d="M22.8943 18.7906C22.879 18.9377 22.8063 19.0487 22.6384 19.0635C22.4836 19.0761 22.4016 18.9875 22.3896 18.842C22.3759 18.6949 22.5203 18.5544 22.6674 18.5555C22.7964 18.5566 22.8911 18.6501 22.8943 18.7906Z" fill="#11A147"/>
<path fill-rule="evenodd" clip-rule="evenodd" d="M19.8243 17.0789C19.9479 17.1784 19.798 17.2441 19.7925 17.3277C19.6897 17.2802 19.5612 17.2993 19.4781 17.2091C19.3895 17.1128 19.4059 17.004 19.4639 16.8979C19.5279 16.7858 19.6263 16.7377 19.7472 16.7803C19.8576 16.8197 19.9402 16.8941 19.8866 17.0341C19.8018 17.0494 19.7324 16.9378 19.6132 17.0127C19.6925 17.0494 19.7876 16.9985 19.8243 17.0789Z" fill="#0C9F43"/>
<path fill-rule="evenodd" clip-rule="evenodd" d="M16.8491 15.9523C16.7769 16.0371 16.7239 16.0043 16.6741 16.0054C16.626 16.0054 16.5746 15.9655 16.515 16.0152C16.5685 16.1027 16.6982 16.0464 16.7485 16.1334C16.7414 16.1459 16.7381 16.1629 16.7288 16.1716C16.6566 16.2285 16.5412 16.0907 16.4964 16.2045C16.4553 16.3023 16.5631 16.2684 16.6096 16.2848C16.6621 16.3056 16.7271 16.298 16.7906 16.3691C16.6435 16.4336 16.4679 16.4035 16.4072 16.3324C16.3115 16.2203 16.3788 16.0213 16.4515 15.9217C16.5374 15.8041 16.6943 15.919 16.8491 15.9523Z" fill="#19A44D"/>
<path fill-rule="evenodd" clip-rule="evenodd" d="M17.7818 16.4281C17.6577 16.415 17.5166 16.3275 17.481 16.532C17.4799 16.5386 17.4367 16.5479 17.4236 16.5391C17.4088 16.5309 17.4006 16.5003 17.4034 16.4828C17.4356 16.3532 17.452 16.2143 17.5094 16.0978C17.5762 15.9666 17.6894 16.0776 17.7829 16.0902C17.8944 16.1049 17.9562 16.1727 17.9442 16.2903C17.9333 16.3915 17.8567 16.4188 17.7818 16.4281Z" fill="#0D9F44"/>
<path fill-rule="evenodd" clip-rule="evenodd" d="M19.2609 16.7415C19.2489 16.9061 19.168 17.0198 19.0034 17.0248C18.8562 17.0302 18.7737 16.9269 18.7769 16.7803C18.7813 16.6217 18.8584 16.5069 19.0296 16.502C19.1866 16.4965 19.2473 16.602 19.2609 16.7415Z" fill="#0FA046"/>
<path fill-rule="evenodd" clip-rule="evenodd" d="M15.5747 16.1476C15.5566 16.1864 15.5418 16.2416 15.4899 16.2291C15.3997 16.2077 15.4401 16.1208 15.4182 16.0639C15.3515 15.9988 15.369 16.0885 15.3482 16.1049C15.3406 16.1454 15.3592 16.2072 15.3045 16.2154C15.2372 16.2236 15.2531 16.1591 15.2547 16.1208C15.2602 16.0409 15.2613 15.9573 15.2832 15.8807C15.3023 15.8151 15.2329 15.6942 15.3636 15.6931C15.479 15.6926 15.4538 15.8102 15.4686 15.8807C15.4839 15.9616 15.4921 15.9961 15.5582 15.9157C15.6266 15.8977 15.6408 15.9474 15.6567 15.9955C15.6654 16.0655 15.6343 16.1142 15.5747 16.1476Z" fill="#0EA044"/>
<path fill-rule="evenodd" clip-rule="evenodd" d="M21.399 18.1562C21.4395 18.1562 21.4805 18.2098 21.5199 18.1639C21.55 18.1295 21.5232 18.0955 21.4964 18.0677C21.4767 18.0463 21.4559 18.0261 21.4373 18.0031C21.3815 17.9359 21.3033 17.8713 21.3804 17.774C21.4504 17.6848 21.5319 17.7067 21.6129 17.763C21.6276 17.7915 21.6227 17.8188 21.6074 17.8445C21.5478 17.938 21.6588 17.9949 21.6566 18.0748C21.6736 18.1497 21.6845 18.2252 21.6019 18.2684C21.4991 18.323 21.4198 18.2727 21.3443 18.2071C21.3361 18.1639 21.352 18.1426 21.399 18.1562Z" fill="#10A146"/>
<path fill-rule="evenodd" clip-rule="evenodd" d="M19.8241 17.0789C19.782 17.1084 19.6973 17.0127 19.7 17.0849C19.7055 17.2129 19.6415 17.2014 19.5819 17.1637C19.5015 17.1139 19.4971 17.0286 19.548 16.9498C19.5972 16.8727 19.6666 16.8279 19.7509 16.8908C19.8023 16.9285 19.8411 16.9854 19.8854 17.0341L19.8241 17.0789Z" fill="#ECF7F0"/>
<path fill-rule="evenodd" clip-rule="evenodd" d="M15.6106 16.018C15.5946 15.9842 15.5771 15.9512 15.5581 15.919C15.5772 15.8703 15.5947 15.8211 15.6177 15.7741C15.6385 15.7298 15.6746 15.7052 15.7254 15.7216C15.7823 15.7407 15.7779 15.7845 15.7747 15.8304C15.7626 15.9644 15.7517 16.0978 15.7413 16.2318C15.6615 16.2827 15.6412 16.2362 15.6281 16.1673C15.6183 16.1175 15.644 16.0639 15.6106 16.018Z" fill="#17A34C"/>
<path fill-rule="evenodd" clip-rule="evenodd" d="M21.6583 18.0742C21.6091 18.0239 21.5566 17.9763 21.5107 17.9227C21.4571 17.8593 21.4779 17.8205 21.5577 17.8101C21.6731 17.8358 21.7437 17.8916 21.7097 18.0239C21.6939 18.0403 21.6764 18.0578 21.6583 18.0742Z" fill="#D7EFE0"/>
<path fill-rule="evenodd" clip-rule="evenodd" d="M21.7097 18.0239C21.6566 17.955 21.6424 17.8566 21.5576 17.8101L21.6145 17.7625C21.7064 17.8276 21.8743 17.8648 21.7097 18.0239Z" fill="#2BAB5B"/>
<path fill-rule="evenodd" clip-rule="evenodd" d="M22.242 18.4816C22.2349 18.4773 22.2256 18.4751 22.2223 18.4691C22.1785 18.3881 22.0336 18.3154 22.0828 18.2438C22.1446 18.1573 22.2092 18.2596 22.2431 18.3334C22.2584 18.3646 22.277 18.3952 22.2945 18.4275C22.2764 18.4455 22.2584 18.4636 22.242 18.4816Z" fill="#E6F5EC"/>
<path fill-rule="evenodd" clip-rule="evenodd" d="M21.3991 18.1563C21.3816 18.1732 21.3647 18.1907 21.3444 18.2077C21.3215 18.1913 21.2897 18.1798 21.275 18.1563C21.2471 18.1032 21.1672 18.0327 21.2597 17.9911C21.3373 17.9539 21.3373 18.0529 21.3625 18.101C21.3729 18.1213 21.386 18.1382 21.3991 18.1563Z" fill="#29AA59"/>
<path fill-rule="evenodd" clip-rule="evenodd" d="M15.6104 16.018C15.6902 16.0491 15.6481 16.1159 15.6492 16.1656C15.6536 16.234 15.6776 16.257 15.7416 16.2329C15.6082 16.362 15.6251 16.1897 15.5737 16.1514C15.5874 16.106 15.5978 16.0617 15.6104 16.018Z" fill="#DDF1E4"/>
<path fill-rule="evenodd" clip-rule="evenodd" d="M15.3452 16.1055V15.9294C15.4207 15.9534 15.4229 16.0065 15.4152 16.0645C15.3922 16.0781 15.3682 16.0912 15.3452 16.1055Z" fill="#6FC690"/>
<path fill-rule="evenodd" clip-rule="evenodd" d="M13.9824 15.925C13.9901 15.8452 13.9518 15.7412 14.088 15.75C14.1875 15.756 14.2597 15.7959 14.2652 15.9097C14.2706 16.0322 14.199 16.082 14.0858 16.0902C13.942 16.1016 14.0005 15.9884 13.9824 15.925Z" fill="#F5FBF7"/>
<path fill-rule="evenodd" clip-rule="evenodd" d="M20.2893 17.1281C20.3462 17.1593 20.4331 17.1653 20.4517 17.2495C20.461 17.2933 20.4233 17.3223 20.3844 17.3097C20.3123 17.2878 20.2166 17.2867 20.2067 17.185C20.204 17.1555 20.2357 17.1183 20.2893 17.1281Z" fill="#EFF8F3"/>
<path fill-rule="evenodd" clip-rule="evenodd" d="M18.5156 16.4555C18.5008 16.5123 18.4609 16.532 18.415 16.5151C18.3532 16.4927 18.2536 16.5173 18.2525 16.409C18.2503 16.3527 18.2886 16.3357 18.34 16.3527C18.4078 16.3745 18.4899 16.3718 18.5156 16.4555Z" fill="#DEF2E5"/>
<path fill-rule="evenodd" clip-rule="evenodd" d="M13.4065 15.7823C13.4601 15.7888 13.5449 15.7604 13.5394 15.8517C13.5339 15.9316 13.453 15.919 13.395 15.9201C13.3485 15.9217 13.2818 15.9458 13.2774 15.8621C13.2742 15.7626 13.3518 15.7937 13.4065 15.7823Z" fill="#F3FAF5"/>
<path fill-rule="evenodd" clip-rule="evenodd" d="M12.7148 15.8583C12.8138 15.8648 12.863 15.9239 12.8668 16.0169C12.8723 16.1 12.8313 16.1711 12.746 16.1787C12.6475 16.188 12.6032 16.1131 12.5977 16.0218C12.5923 15.9376 12.6251 15.8763 12.7148 15.8583Z" fill="#F3FAF6"/>
<path fill-rule="evenodd" clip-rule="evenodd" d="M22.7855 18.8098C22.7713 18.9005 22.7166 18.9645 22.6111 18.9645C22.5263 18.9634 22.4946 18.9016 22.5034 18.8267C22.5116 18.725 22.5723 18.6594 22.6756 18.661C22.7571 18.6632 22.7888 18.7217 22.7855 18.8098Z" fill="#F9FCFA"/>
<path fill-rule="evenodd" clip-rule="evenodd" d="M17.6533 16.1591C17.7085 16.193 17.8195 16.158 17.8354 16.2673C17.8403 16.3089 17.7944 16.3302 17.7577 16.322C17.6861 16.3062 17.586 16.3319 17.5773 16.2165C17.5756 16.1809 17.5915 16.1427 17.6533 16.1591Z" fill="#E7F5EC"/>
<path fill-rule="evenodd" clip-rule="evenodd" d="M19.1515 16.7546C19.1411 16.8492 19.0946 16.9154 18.9989 16.9154C18.9048 16.9165 18.8715 16.8509 18.8759 16.7645C18.8835 16.6693 18.9377 16.6059 19.0301 16.602C19.122 16.5987 19.1515 16.672 19.1515 16.7546Z" fill="#F5FBF7"/>
</svg>
