<svg width="76" height="76" viewBox="0 0 76 76" fill="none" xmlns="http://www.w3.org/2000/svg">
<g clip-path="url(#clip0_133_191)">
<path d="M43.5583 54.8958L39.9833 59.8458C43.375 62.8708 47.5917 64.3833 52.6333 64.3833C56.4833 64.2917 59.4167 63.2986 61.4333 61.4042C63.4806 59.4792 64.5042 57.1875 64.5042 54.5292C64.5042 51.9319 63.7861 49.7931 62.35 48.1125C60.9139 46.4319 58.5 45.0875 55.1083 44.0792C52.3028 43.2264 50.3167 42.4472 49.15 41.7417C47.9889 41.0083 47.4083 40.1222 47.4083 39.0833C47.4083 38.1389 47.8819 37.375 48.8292 36.7917C49.7792 36.2083 51.0472 35.9181 52.6333 35.9208C53.7972 35.9208 55.1111 36.15 56.575 36.6083C58.0417 37.0056 59.3403 37.6472 60.4708 38.5333L63.6792 33.5375C60.8708 31.2764 57.1431 30.1458 52.4958 30.1458C49.1681 30.1458 46.4333 31.0014 44.2917 32.7125C42.0917 34.4208 40.9917 36.5444 40.9917 39.0833C41.0222 41.7722 41.9083 43.8653 43.65 45.3625C45.4222 46.8625 47.9431 48.0847 51.2125 49.0292C53.9347 49.8819 55.7833 50.7375 56.7583 51.5958C57.2089 51.9796 57.5697 52.4577 57.8152 52.9962C58.0608 53.5348 58.185 54.1207 58.1792 54.7125C58.202 55.2544 58.0834 55.7929 57.835 56.2751C57.5866 56.7573 57.217 57.1665 56.7625 57.4625C55.7819 58.1347 54.375 58.4708 52.5417 58.4708C49.55 58.4986 46.5556 57.3069 43.5583 54.8958ZM20.5167 57.5542C19.5117 56.9186 18.6399 56.0935 17.95 55.125L13.6417 58.6542C14.9278 60.8208 16.5167 62.3333 18.4083 63.1917C20.1806 63.9833 22.2125 64.3806 24.5042 64.3833C25.7542 64.3833 27.0528 64.1847 28.4 63.7875C29.7472 63.3903 30.9847 62.7181 32.1125 61.7708C34.0986 60.1819 35.1375 57.5847 35.2292 53.9792V30.6958H29.0417V52.7875C29.0417 54.8986 28.5694 56.3806 27.625 57.2333C26.675 58.0583 25.4819 58.4708 24.0458 58.4708C22.6708 58.4708 21.4944 58.1653 20.5167 57.5542ZM0.5 13C0.5 9.68479 1.81696 6.50537 4.16117 4.16117C6.50537 1.81696 9.68479 0.5 13 0.5H63C66.3152 0.5 69.4946 1.81696 71.8388 4.16117C74.183 6.50537 75.5 9.68479 75.5 13V63C75.5 66.3152 74.183 69.4946 71.8388 71.8388C69.4946 74.183 66.3152 75.5 63 75.5H13C9.68479 75.5 6.50537 74.183 4.16117 71.8388C1.81696 69.4946 0.5 66.3152 0.5 63V13ZM13 8.83333C11.8949 8.83333 10.8351 9.27232 10.0537 10.0537C9.27232 10.8351 8.83333 11.8949 8.83333 13V63C8.83333 64.1051 9.27232 65.1649 10.0537 65.9463C10.8351 66.7277 11.8949 67.1667 13 67.1667H63C64.1051 67.1667 65.1649 66.7277 65.9463 65.9463C66.7277 65.1649 67.1667 64.1051 67.1667 63V13C67.1667 11.8949 66.7277 10.8351 65.9463 10.0537C65.1649 9.27232 64.1051 8.83333 63 8.83333H13Z" fill="white"/>
</g>
<defs>
<clipPath id="clip0_133_191">
<rect width="76" height="76" fill="white"/>
</clipPath>
</defs>
</svg>
