<svg width="90" height="82" viewBox="0 0 90 82" fill="none" xmlns="http://www.w3.org/2000/svg">
<g clip-path="url(#clip0_133_189)">
<path d="M45.0002 33.125C49.2918 33.125 52.7918 36.625 52.7918 41C52.7918 45.1667 49.2918 48.7084 45.0002 48.7084C40.7085 48.7084 37.2085 45.1667 37.2085 41C37.2085 36.625 40.7085 33.125 45.0002 33.125ZM25.7085 74.3334C28.3335 75.9167 34.0835 73.5 40.7085 67.25C38.5418 64.7917 36.4168 62.125 34.4168 59.3334C31.0594 59.0097 27.7214 58.509 24.4168 57.8334C22.2918 66.7501 23.0835 72.875 25.7085 74.3334ZM28.6668 50.4167L27.4585 48.2917C27.0002 49.5 26.5418 50.7084 26.2502 51.875C27.3752 52.125 28.6252 52.3334 29.9168 52.5417L28.6668 50.4167ZM55.9168 47.25L59.2918 41L55.9168 34.75C54.6668 32.5417 53.3335 30.5834 52.1252 28.625C49.8752 28.5 47.5002 28.5 45.0002 28.5C42.5002 28.5 40.1252 28.5 37.8752 28.625C36.6668 30.5834 35.3335 32.5417 34.0835 34.75L30.7085 41L34.0835 47.25C35.3335 49.4584 36.6668 51.4167 37.8752 53.375C40.1252 53.5 42.5002 53.5 45.0002 53.5C47.5002 53.5 49.8752 53.5 52.1252 53.375C53.3335 51.4167 54.6668 49.4584 55.9168 47.25ZM45.0002 19.25C44.2085 20.1667 43.3752 21.125 42.5418 22.25H47.4585C46.6252 21.125 45.7918 20.1667 45.0002 19.25ZM45.0002 62.75C45.7918 61.8334 46.6252 60.875 47.4585 59.75H42.5418C43.3752 60.875 44.2085 61.8334 45.0002 62.75ZM64.2502 7.66671C61.6668 6.08338 55.9168 8.50005 49.2918 14.75C51.4585 17.2084 53.5835 19.875 55.5835 22.6667C59.0002 23 62.3752 23.5 65.5835 24.1667C67.7085 15.25 66.9168 9.12505 64.2502 7.66671ZM61.3335 31.5834L62.5418 33.7084C63.0002 32.5 63.4585 31.2917 63.7502 30.125C62.6252 29.875 61.3752 29.6667 60.0835 29.4584L61.3335 31.5834ZM67.3752 2.20838C73.5002 5.70838 74.1668 14.9167 71.5835 25.6667C82.1668 28.7917 89.7918 33.9584 89.7918 41C89.7918 48.0417 82.1668 53.2084 71.5835 56.3334C74.1668 67.0834 73.5002 76.2917 67.3752 79.7917C61.2918 83.2917 53.0002 79.2917 45.0002 71.6667C37.0002 79.2917 28.7085 83.2917 22.5835 79.7917C16.5002 76.2917 15.8335 67.0834 18.4168 56.3334C7.8335 53.2084 0.208496 48.0417 0.208496 41C0.208496 33.9584 7.8335 28.7917 18.4168 25.6667C15.8335 14.9167 16.5002 5.70838 22.5835 2.20838C28.7085 -1.29162 37.0002 2.70838 45.0002 10.3334C53.0002 2.70838 61.2918 -1.29162 67.3752 2.20838ZM66.1668 41C67.5835 44.125 68.8335 47.25 69.8752 50.4167C78.6252 47.7917 83.5418 44.0417 83.5418 41C83.5418 37.9584 78.6252 34.2084 69.8752 31.5834C68.8335 34.75 67.5835 37.875 66.1668 41ZM23.8335 41C22.4168 37.875 21.1668 34.75 20.1252 31.5834C11.3752 34.2084 6.4585 37.9584 6.4585 41C6.4585 44.0417 11.3752 47.7917 20.1252 50.4167C21.1668 47.25 22.4168 44.125 23.8335 41ZM61.3335 50.4167L60.0835 52.5417C61.3752 52.3334 62.6252 52.125 63.7502 51.875C63.4585 50.7084 63.0002 49.5 62.5418 48.2917L61.3335 50.4167ZM49.2918 67.25C55.9168 73.5 61.6668 75.9167 64.2502 74.3334C66.9168 72.875 67.7085 66.7501 65.5835 57.8334C62.3752 58.5 59.0002 59 55.5835 59.3334C53.5835 62.125 51.4585 64.7917 49.2918 67.25ZM28.6668 31.5834L29.9168 29.4584C28.6252 29.6667 27.3752 29.875 26.2502 30.125C26.5418 31.2917 27.0002 32.5 27.4585 33.7084L28.6668 31.5834ZM40.7085 14.75C34.0835 8.50005 28.3335 6.08338 25.7085 7.66671C23.0835 9.12505 22.2918 15.25 24.4168 24.1667C27.7214 23.4911 31.0594 22.9904 34.4168 22.6667C36.4168 19.875 38.5418 17.2084 40.7085 14.75Z" fill="white"/>
</g>
<defs>
<clipPath id="clip0_133_189">
<rect width="90" height="82" fill="white"/>
</clipPath>
</defs>
</svg>
