<svg width="35" height="35" viewBox="0 0 35 35" fill="none" xmlns="http://www.w3.org/2000/svg">
<g clip-path="url(#clip0_282_174)">
<path d="M34.4604 6.80553C33.7867 5.64761 32.5471 4.86108 31.1111 4.86108H17.5V6.80553H34.4604ZM0 24.3055H35V26.25H0V24.3055ZM17.5 16.5278H35V18.4722H17.5V16.5278ZM17.5 12.6389H35V14.5833H17.5V12.6389ZM0 20.4166H35V22.3611H0V20.4166ZM3.88889 30.1389H31.1111C32.5471 30.1389 33.7867 29.3523 34.4604 28.1944H0.539583C1.21333 29.3523 2.45292 30.1389 3.88889 30.1389ZM17.5 8.74997H35V10.6944H17.5V8.74997Z" fill="#B22334"/>
<path d="M0.0661111 26.9101C0.0823148 27.0009 0.101435 27.0906 0.123472 27.1794C0.149398 27.2767 0.179213 27.3726 0.212917 27.4672C0.299444 27.719 0.404444 27.9621 0.536667 28.1896L0.539583 28.1944H34.4604L34.4624 28.1905C34.5941 27.962 34.7023 27.7206 34.7851 27.4701C34.8482 27.2874 34.8976 27.1002 34.9329 26.9101C34.9728 26.6962 35 26.4765 35 26.25H0C0 26.4765 0.0272222 26.6953 0.0661111 26.9101ZM0 22.3611H35V24.3055H0V22.3611ZM0 18.4722V20.4167H35V18.4722H17.5H0ZM17.5 14.5833H35V16.5278H17.5V14.5833ZM17.5 10.6944H35V12.6389H17.5V10.6944ZM0.124444 7.82054C0.14875 7.72138 0.182778 7.62707 0.213889 7.53179C0.180343 7.62685 0.150506 7.72317 0.124444 7.82054ZM17.5 8.74999H35C35 8.52346 34.9728 8.30374 34.9329 8.08888C34.8989 7.89842 34.8491 7.71111 34.7842 7.52888C34.7012 7.27737 34.5927 7.035 34.4604 6.80554H17.5V8.74999Z" fill="#EEEEEE"/>
<path d="M17.5 4.86108H3.88889C2.85749 4.86108 1.86834 5.2708 1.13903 6.00011C0.409721 6.72942 0 7.71858 0 8.74997L0 18.4722H17.5V4.86108Z" fill="#3C3B6E"/>
<path d="M1.94543 7.51138L2.54627 7.9479L2.31682 8.65276L2.91668 8.21721L3.51752 8.65276L3.28807 7.9479L3.88891 7.51138H3.14613L2.91668 6.80554L2.68821 7.51138H1.94543ZM3.88988 9.45582L4.49071 9.89235L4.26127 10.5972L4.86113 10.1617L5.46196 10.5972L5.23252 9.89235L5.83335 9.45582H5.09057L4.86113 8.74999L4.63266 9.45582H3.88988ZM7.77877 9.45582L8.3796 9.89235L8.15016 10.5972L8.75002 10.1617L9.35085 10.5972L9.12141 9.89235L9.72224 9.45582H8.97946L8.75002 8.74999L8.52155 9.45582H7.77877ZM11.6677 9.45582L12.2685 9.89235L12.039 10.5972L12.6389 10.1617L13.2397 10.5972L13.0103 9.89235L13.6111 9.45582H12.8684L12.6389 8.74999L12.4104 9.45582H11.6677ZM3.88988 13.3447L4.49071 13.7812L4.26127 14.4861L4.86113 14.0505L5.46196 14.4861L5.23252 13.7812L5.83335 13.3447H5.09057L4.86113 12.6389L4.63266 13.3447H3.88988ZM7.77877 13.3447L8.3796 13.7812L8.15016 14.4861L8.75002 14.0505L9.35085 14.4861L9.12141 13.7812L9.72224 13.3447H8.97946L8.75002 12.6389L8.52155 13.3447H7.77877ZM11.6677 13.3447L12.2685 13.7812L12.039 14.4861L12.6389 14.0505L13.2397 14.4861L13.0103 13.7812L13.6111 13.3447H12.8684L12.6389 12.6389L12.4104 13.3447H11.6677ZM5.83432 7.51138L6.43516 7.9479L6.20571 8.65276L6.80557 8.21721L7.40641 8.65276L7.17696 7.9479L7.7778 7.51138H7.03502L6.80557 6.80554L6.5771 7.51138H5.83432ZM9.72321 7.51138L10.324 7.9479L10.0946 8.65276L10.6945 8.21721L11.2953 8.65276L11.0659 7.9479L11.6667 7.51138H10.9239L10.6945 6.80554L10.466 7.51138H9.72321ZM13.6121 7.51138L14.2129 7.9479L13.9835 8.65276L14.5834 8.21721L15.1842 8.65276L14.9547 7.9479L15.5556 7.51138H14.8128L14.5834 6.80554L14.3549 7.51138H13.6121ZM1.94543 11.4003L2.54627 11.8368L2.31682 12.5417L2.91668 12.1061L3.51752 12.5417L3.28807 11.8368L3.88891 11.4003H3.14613L2.91668 10.6944L2.68821 11.4003H1.94543ZM6.20571 12.5417L6.80557 12.1061L7.40641 12.5417L7.17696 11.8368L7.7778 11.4003H7.03502L6.80557 10.6944L6.5771 11.4003H5.83432L6.43516 11.8368L6.20571 12.5417ZM9.72321 11.4003L10.324 11.8368L10.0946 12.5417L10.6945 12.1061L11.2953 12.5417L11.0659 11.8368L11.6667 11.4003H10.9239L10.6945 10.6944L10.466 11.4003H9.72321ZM13.6121 11.4003L14.2129 11.8368L13.9835 12.5417L14.5834 12.1061L15.1842 12.5417L14.9547 11.8368L15.5556 11.4003H14.8128L14.5834 10.6944L14.3549 11.4003H13.6121ZM1.94543 15.2892L2.54627 15.7257L2.31682 16.4305L2.91668 15.995L3.51752 16.4305L3.28807 15.7257L3.88891 15.2892H3.14613L2.91668 14.5833L2.68821 15.2892H1.94543ZM6.20571 16.4305L6.80557 15.995L7.40641 16.4305L7.17696 15.7257L7.7778 15.2892H7.03502L6.80557 14.5833L6.5771 15.2892H5.83432L6.43516 15.7257L6.20571 16.4305ZM9.72321 15.2892L10.324 15.7257L10.0946 16.4305L10.6945 15.995L11.2953 16.4305L11.0659 15.7257L11.6667 15.2892H10.9239L10.6945 14.5833L10.466 15.2892H9.72321ZM13.6121 15.2892L14.2129 15.7257L13.9835 16.4305L14.5834 15.995L15.1842 16.4305L14.9547 15.7257L15.5556 15.2892H14.8128L14.5834 14.5833L14.3549 15.2892H13.6121Z" fill="white"/>
</g>
<defs>
<clipPath id="clip0_282_174">
<rect width="35" height="35" fill="white"/>
</clipPath>
</defs>
</svg>
