<svg width="24" height="24" viewBox="0 0 24 24" fill="none" xmlns="http://www.w3.org/2000/svg">
<path d="M8.52499 4.62997L3.39299 3.71497C3.17456 3.67442 2.9491 3.69689 2.74297 3.77977C2.53684 3.86265 2.35856 4.0025 2.229 4.18297C2.09283 4.36584 2.01357 4.58477 2.00112 4.81242C1.98867 5.04008 2.04358 5.26635 2.15899 5.46297L11.06 21.043C11.1638 21.2246 11.3139 21.3754 11.495 21.48C11.6761 21.5846 11.8817 21.6393 12.0908 21.6385C12.3 21.6377 12.5052 21.5814 12.6854 21.4753C12.8657 21.3693 13.0146 21.2174 13.117 21.035L21.846 5.45697C22.336 4.58197 21.584 3.53997 20.604 3.71797L16.03 4.53097L15.824 5.28497L20.73 4.41397C20.8183 4.39811 20.9093 4.40764 20.9924 4.44144C21.0755 4.47525 21.1473 4.53195 21.1995 4.60495C21.2516 4.67795 21.282 4.76425 21.287 4.85383C21.2921 4.9434 21.2716 5.03257 21.228 5.11097L12.5 20.689C12.452 20.7757 12.3778 20.8451 12.288 20.8871C12.1982 20.9291 12.0974 20.9417 12 20.923C11.932 20.9108 11.8676 20.8838 11.8112 20.8438C11.7549 20.8039 11.708 20.7521 11.674 20.692L2.772 5.11197C2.72769 5.03366 2.70659 4.94436 2.71116 4.8545C2.71573 4.76464 2.74578 4.67794 2.79779 4.60453C2.84981 4.53111 2.92165 4.47402 3.00491 4.43992C3.08818 4.40583 3.17943 4.39613 3.26799 4.41197L8.401 5.32797L8.475 5.34097L8.52499 4.62997Z" fill="white"/>
<path d="M15.097 5.25999L15.259 4.66699L14.659 4.77399L15.097 5.25999ZM9.21699 4.75399L9.72999 4.84399L9.18799 5.27099L9.21699 4.75399Z" fill="white"/>
<path d="M15.549 2.367L9.44896 3.627C9.39934 3.63739 9.35484 3.66459 9.32296 3.704C9.29031 3.74447 9.27108 3.7941 9.26796 3.846L8.89296 10.531C8.89061 10.5672 8.8965 10.6035 8.91018 10.6371C8.92386 10.6707 8.94499 10.7007 8.97196 10.725C8.99768 10.749 9.02901 10.7662 9.06308 10.7749C9.09715 10.7836 9.13287 10.7837 9.16696 10.775L10.865 10.361C11.025 10.323 11.167 10.471 11.135 10.639L10.63 13.245C10.596 13.421 10.752 13.571 10.915 13.519L11.964 13.183C12.126 13.131 12.283 13.281 12.248 13.457L11.447 17.55C11.397 17.807 11.719 17.946 11.854 17.727L11.944 17.58L16.914 7.116C16.998 6.941 16.854 6.741 16.672 6.778L14.924 7.134C14.759 7.168 14.62 7.006 14.666 6.837L15.806 2.664C15.853 2.494 15.713 2.333 15.549 2.367Z" fill="white"/>
</svg>
